<svg fill="none" height="492" viewBox="-.22918305 .00121439 353.05018305 69.80768569" width="2500" xmlns="http://www.w3.org/2000/svg"><path d="m343.928 53.145c.213 2.434 2.158 5.533 5.53 5.533h1.971a1.399 1.399 0 0 0 1.392-1.393v-43.416h-.009a1.39 1.39 0 0 0 -1.383-1.318h-6.109a1.387 1.387 0 0 0 -1.383 1.318h-.009v3.528c-3.745-4.62-9.647-6.538-15.566-6.538a24.35 24.35 0 0 0 -17.231 7.15 24.392 24.392 0 0 0 -7.132 17.254 24.423 24.423 0 0 0 7.13 17.257 24.376 24.376 0 0 0 17.233 7.154c5.919 0 12.371-2.3 15.566-6.535zm-15.543-2.014c-8.557 0-15.493-7.102-15.493-15.865s6.936-15.864 15.493-15.864c8.559 0 15.495 7.102 15.495 15.864s-6.936 15.865-15.495 15.865zm-32.11 3.506v-22.463c0-12.667-7.979-21.21-20.693-21.21-6.071 0-11.049 3.516-12.806 6.538-.382-2.364-1.631-4.846-5.515-4.846h-1.977a1.396 1.396 0 0 0 -1.392 1.394v43.42h.009a1.39 1.39 0 0 0 1.383 1.316h6.112c.092 0 .185-.012.274-.028.041-.007.076-.026.117-.035l.137-.042c.054-.025.102-.054.152-.082l.077-.042c.059-.04.116-.087.168-.136l.032-.023c.255-.244.408-.576.426-.929h.006v-25.645a12.318 12.318 0 0 1 3.6-8.707 12.293 12.293 0 0 1 8.695-3.61c3.261.002 6.388 1.3 8.694 3.609a12.318 12.318 0 0 1 3.601 8.705l.003 21.439v-.007l.006.058v4.158h.007a1.392 1.392 0 0 0 1.382 1.317h6.113c.091 0 .183-.01.273-.028.035-.007.07-.022.105-.032.051-.013.102-.025.149-.045.051-.022.096-.05.143-.076l.086-.048c.056-.039.109-.081.159-.127l.041-.032c.057-.056.109-.116.156-.181l.01-.013a1.38 1.38 0 0 0 .26-.732h.01zm-63.642-1.492c.213 2.434 2.162 5.533 5.531 5.533h1.971c.763 0 1.389-.627 1.389-1.393v-43.416h-.007a1.392 1.392 0 0 0 -1.382-1.318h-6.113a1.392 1.392 0 0 0 -1.382 1.318h-.007v3.528c-3.744-4.62-9.647-6.538-15.568-6.538a24.35 24.35 0 0 0 -17.23 7.152 24.407 24.407 0 0 0 -7.131 17.252c0 13.482 10.906 24.411 24.361 24.411 5.921 0 12.371-2.3 15.568-6.535zm-15.543-2.014c-8.557 0-15.495-7.102-15.495-15.865s6.938-15.864 15.495-15.864 15.492 7.102 15.492 15.864-6.935 15.865-15.492 15.865zm-60.523-4.206c4.078 2.831 8.531 4.206 12.81 4.206 4.078 0 8.292-2.116 8.292-5.8 0-4.92-9.186-5.686-14.955-7.653-5.769-1.963-10.74-6.023-10.74-12.6 0-10.064 8.951-14.222 17.304-14.222 5.292 0 10.753 1.75 14.294 4.257 1.221.923.477 1.988.477 1.988l-3.379 4.837c-.381.54-1.043 1.012-1.996.423-.954-.589-4.298-2.96-9.396-2.96-5.095 0-8.169 2.355-8.169 5.283 0 3.5 3.992 4.604 8.668 5.8 8.144 2.199 17.028 4.843 17.028 14.847 0 8.864-8.277 14.343-17.428 14.343-6.933 0-12.836-1.979-17.788-5.619-1.03-1.034-.311-1.995-.311-1.995l3.363-4.81c.686-.898 1.548-.586 1.926-.325zm-23.493 6.22c.216 2.434 2.161 5.533 5.531 5.533h1.97a1.399 1.399 0 0 0 1.393-1.393v-43.416h-.01a1.393 1.393 0 0 0 -1.383-1.318h-6.109a1.392 1.392 0 0 0 -1.382 1.318h-.01v3.528c-3.744-4.62-9.647-6.538-15.565-6.538a24.361 24.361 0 0 0 -17.231 7.151 24.411 24.411 0 0 0 -7.133 17.253c0 13.482 10.909 24.411 24.364 24.411 5.918 0 12.371-2.3 15.565-6.535zm-15.543-2.014c-8.557 0-15.493-7.102-15.493-15.865s6.936-15.864 15.496-15.864c8.557 0 15.492 7.102 15.492 15.864s-6.938 15.865-15.495 15.865z" fill="#0d0e10"/><path d="m58.991 36.925c-4.349 0-8.52 1.73-11.594 4.807a16.424 16.424 0 0 0 0 23.212 16.388 16.388 0 0 0 23.188 0 16.422 16.422 0 0 0 0-23.212 16.388 16.388 0 0 0 -11.594-4.807zm-42.596.003a16.38 16.38 0 0 0 -11.74 4.725 16.412 16.412 0 0 0 -4.883 11.685 16.426 16.426 0 0 0 4.883 11.686 16.393 16.393 0 0 0 11.74 4.725 16.387 16.387 0 0 0 11.445-4.887 16.42 16.42 0 0 0 0-23.047 16.387 16.387 0 0 0 -11.445-4.887zm37.692-20.516a16.42 16.42 0 0 1 -4.802 11.605 16.387 16.387 0 0 1 -23.187 0 16.42 16.42 0 0 1 0-23.21 16.387 16.387 0 0 1 23.187 0 16.42 16.42 0 0 1 4.802 11.605z" fill="#ff584a"/></svg>